<?xml version="1.0" encoding="utf-8"?>
<!-- Generator: Adobe Illustrator 27.3.0, SVG Export Plug-In . SVG Version: 6.00 Build 0)  -->
<svg version="1.1" id="Capa_1" xmlns="http://www.w3.org/2000/svg" xmlns:xlink="http://www.w3.org/1999/xlink" x="0px" y="0px"
	 viewBox="0 0 2000 550" style="enable-background:new 0 0 2000 550;" xml:space="preserve">
<style type="text/css">
	.st0{fill:url(#SVGID_1_);}
</style>
<g>
	<linearGradient id="SVGID_1_" gradientUnits="userSpaceOnUse" x1="18.282" y1="275" x2="2039.4274" y2="275">
		<stop  offset="0" style="stop-color:#C11E38"/>
		<stop  offset="1" style="stop-color:#220B34"/>
	</linearGradient>
	<path class="st0" d="M68.75,0C30.83,0,0,30.83,0,68.75v412.5C0,519.17,30.83,550,68.75,550h275c37.92,0,68.75-30.83,68.75-68.75
		V68.75C412.5,30.83,381.67,0,343.75,0H68.75z M103.12,68.75h206.25c19.01,0,34.38,15.36,34.38,34.38v34.38
		c0,19.01-15.36,34.38-34.38,34.38H103.12c-19.01,0-34.38-15.36-34.38-34.38v-34.38C68.75,84.11,84.11,68.75,103.12,68.75z
		 M137.5,240.62c0,18.98-15.39,34.38-34.38,34.38s-34.38-15.39-34.38-34.38s15.39-34.38,34.38-34.38S137.5,221.64,137.5,240.62z
		 M103.12,378.12c-18.98,0-34.38-15.39-34.38-34.38s15.39-34.38,34.38-34.38s34.38,15.39,34.38,34.38S122.11,378.12,103.12,378.12z
		 M68.75,446.88c0-19.01,15.36-34.38,34.38-34.38h103.12c19.01,0,34.38,15.36,34.38,34.38s-15.36,34.38-34.38,34.38H103.12
		C84.11,481.25,68.75,465.89,68.75,446.88z M206.25,275c-18.98,0-34.38-15.39-34.38-34.38s15.39-34.38,34.38-34.38
		s34.38,15.39,34.38,34.38S225.23,275,206.25,275z M240.62,343.75c0,18.98-15.39,34.38-34.38,34.38s-34.38-15.39-34.38-34.38
		s15.39-34.38,34.38-34.38S240.62,324.77,240.62,343.75z M309.38,275c-18.98,0-34.38-15.39-34.38-34.38s15.39-34.38,34.38-34.38
		s34.38,15.39,34.38,34.38S328.36,275,309.38,275z M343.75,343.75c0,18.98-15.39,34.38-34.38,34.38S275,362.73,275,343.75
		s15.39-34.38,34.38-34.38S343.75,324.77,343.75,343.75z M309.38,481.25c-18.98,0-34.38-15.39-34.38-34.38s15.39-34.38,34.38-34.38
		s34.38,15.39,34.38,34.38S328.36,481.25,309.38,481.25z M566.87,182.26c2.7-2.28,6.22-2.7,9.13-0.83l17.43,11.62
		c3.94,2.49,4.56,7.88,1.24,11.41c-13.07,13.28-31.53,21.16-52.9,21.16c-42.94,0-73.65-32.16-73.65-75.1
		c0-43.15,30.7-75.31,73.65-75.31c21.37,0,39.83,8.09,52.9,21.37c3.32,3.32,2.7,8.92-1.24,11.41l-17.43,11.62
		c-2.9,1.87-6.43,1.45-9.13-0.83c-6.02-5.81-14.52-9.34-25.1-9.34c-25.31,0-38.17,20.54-38.17,41.08s12.86,41.08,38.17,41.08
		C552.34,191.6,560.85,187.86,566.87,182.26z M715.2,216.7l-6.43-20.75h-54.98l-6.43,20.75c-1.24,3.73-4.77,6.43-8.92,6.43h-22.61
		c-3.73,0-6.43-3.73-5.19-7.47l47.51-131.74c1.24-3.53,4.77-6.02,8.71-6.02h28.84c3.94,0,7.47,2.49,8.71,6.02l47.3,131.74
		c1.45,3.73-1.24,7.47-5.19,7.47h-22.41C719.97,223.13,716.45,220.44,715.2,216.7z M700.26,169.19l-19.09-60.58l-18.88,60.58H700.26
		z M851.3,189.52c3.94,0,7.26,3.32,7.26,7.47v18.67c0,4.15-3.32,7.47-7.26,7.47h-75.1c-3.94,0-7.26-3.32-7.26-7.47V85.38
		c0-4.15,3.32-7.47,7.26-7.47h20.95c3.94,0,7.26,3.32,7.26,7.47v104.15H851.3z M966.86,182.26c2.7-2.28,6.22-2.7,9.13-0.83
		l17.43,11.62c3.94,2.49,4.56,7.88,1.24,11.41c-13.07,13.28-31.53,21.16-52.9,21.16c-42.94,0-73.65-32.16-73.65-75.1
		c0-43.15,30.7-75.31,73.65-75.31c21.37,0,39.83,8.09,52.9,21.37c3.32,3.32,2.7,8.92-1.24,11.41l-17.43,11.62
		c-2.9,1.87-6.43,1.45-9.13-0.83c-6.02-5.81-14.52-9.34-25.1-9.34c-25.31,0-38.17,20.54-38.17,41.08s12.86,41.08,38.17,41.08
		C952.33,191.6,960.84,187.86,966.86,182.26z M1130.13,77.91c4.15,0,7.47,3.32,7.47,7.47v81.32c0,39.62-22.82,58.92-60.79,58.92
		c-37.96,0-60.58-19.29-60.58-58.92V85.38c0-4.15,3.32-7.47,7.26-7.47h20.95c3.94,0,7.26,3.32,7.26,7.47v77.59
		c0,19.29,9.34,28.63,25.1,28.63c15.98,0,25.1-9.34,25.1-28.63V85.38c0-4.15,3.32-7.47,7.47-7.47H1130.13z M1244.85,189.52
		c3.94,0,7.26,3.32,7.26,7.47v18.67c0,4.15-3.32,7.47-7.26,7.47h-75.1c-3.94,0-7.26-3.32-7.26-7.47V85.38
		c0-4.15,3.32-7.47,7.26-7.47h20.95c3.94,0,7.26,3.32,7.26,7.47v104.15H1244.85z M1367.88,216.7l-6.43-20.75h-54.98l-6.43,20.75
		c-1.24,3.73-4.77,6.43-8.92,6.43h-22.61c-3.73,0-6.43-3.73-5.19-7.47l47.51-131.74c1.24-3.53,4.77-6.02,8.71-6.02h28.84
		c3.94,0,7.47,2.49,8.71,6.02l47.3,131.74c1.45,3.73-1.24,7.47-5.19,7.47h-22.41C1372.65,223.13,1369.12,220.44,1367.88,216.7z
		 M1352.94,169.19l-19.09-60.58l-18.88,60.58H1352.94z M1549.41,150.52c0,44.4-28.63,72.61-76.97,72.61h-43.57
		c-3.94,0-7.26-3.32-7.26-7.47V85.38c0-4.15,3.32-7.47,7.26-7.47h43.57C1520.78,77.91,1549.41,106.12,1549.41,150.52z
		 M1513.93,150.52c0-25.72-17.84-39.21-41.49-39.21h-15.35v78.21h15.35C1496.09,189.52,1513.93,176.25,1513.93,150.52z
		 M1711.85,150.52c0,43.15-30.91,75.31-73.86,75.31s-73.86-32.16-73.86-75.31c0-42.94,30.91-75.1,73.86-75.1
		S1711.85,107.58,1711.85,150.52z M1676.17,150.52c0-20.54-12.86-40.87-38.17-40.87c-25.31,0-38.17,20.33-38.17,40.87
		s12.86,41.08,38.17,41.08C1663.31,191.6,1676.17,171.06,1676.17,150.52z M1842.35,223.13h-22.82c-3.53,0-6.64-2.07-8.3-5.19
		l-21.78-43.57c-0.62,0-1.45,0.21-2.07,0.21h-20.33v41.08c0,4.15-3.32,7.47-7.26,7.47h-20.75c-4.15,0-7.47-3.32-7.47-7.47V85.38
		c0-4.15,3.32-7.47,7.47-7.47h48.34c36.93,0,55.81,20.95,55.81,50.21c0,17.22-8.51,30.5-22.41,38.38l26.35,48.34
		C1849.19,218.57,1846.5,223.13,1842.35,223.13z M1767.04,144.71h20.33c10.37,0,19.92-4.36,19.92-16.6c0-10.79-8.09-16.8-19.92-16.8
		h-20.33V144.71z M1963.09,216.7l-6.43-20.75h-54.98l-6.43,20.75c-1.24,3.73-4.77,6.43-8.92,6.43h-22.61
		c-3.73,0-6.43-3.73-5.19-7.47l47.51-131.74c1.24-3.53,4.77-6.02,8.71-6.02h28.84c3.94,0,7.47,2.49,8.71,6.02l47.3,131.74
		c1.45,3.73-1.24,7.47-5.19,7.47h-22.41C1967.86,223.13,1964.33,220.44,1963.09,216.7z M1948.15,169.19l-19.09-60.58l-18.88,60.58
		H1948.15z M802.44,399.48c0,44.4-28.63,72.61-76.97,72.61H681.9c-3.94,0-7.26-3.32-7.26-7.47V334.34c0-4.15,3.32-7.47,7.26-7.47
		h43.57C773.81,326.87,802.44,355.08,802.44,399.48z M766.96,399.48c0-25.73-17.84-39.21-41.49-39.21h-15.35v78.21h15.35
		C749.12,438.48,766.96,425.2,766.96,399.48z M906.17,438.48c4.15,0,7.47,3.32,7.47,7.47v18.67c0,4.15-3.32,7.47-7.47,7.47h-76.35
		c-4.15,0-7.47-3.32-7.47-7.47V334.34c0-4.15,3.32-7.47,7.47-7.47h74.48c4.15,0,7.47,3.32,7.47,7.47v18.67
		c0,3.94-3.32,7.26-7.47,7.26h-46.47v22.61h39.83c4.15,0,7.47,3.32,7.47,7.47v16.8c0,4.15-3.32,7.47-7.47,7.47h-39.83v23.86H906.17z
		 M1081.89,431.22c2.7-2.28,6.22-2.7,9.13-0.83l17.43,11.62c3.94,2.49,4.56,7.88,1.24,11.41c-13.07,13.28-31.53,21.16-52.9,21.16
		c-42.94,0-73.65-32.16-73.65-75.1c0-43.15,30.7-75.31,73.65-75.31c21.37,0,39.83,8.09,52.9,21.37c3.32,3.32,2.7,8.92-1.24,11.41
		l-17.43,11.62c-2.9,1.87-6.43,1.45-9.13-0.83c-6.02-5.81-14.52-9.34-25.1-9.34c-25.31,0-38.17,20.54-38.17,41.08
		c0,20.54,12.86,41.08,38.17,41.08C1067.37,440.56,1075.87,436.82,1081.89,431.22z M1245.16,326.87c4.15,0,7.47,3.32,7.47,7.47
		v81.32c0,39.62-22.82,58.92-60.79,58.92c-37.96,0-60.58-19.29-60.58-58.92v-81.32c0-4.15,3.32-7.47,7.26-7.47h20.95
		c3.94,0,7.26,3.32,7.26,7.47v77.59c0,19.29,9.34,28.63,25.1,28.63c15.98,0,25.1-9.34,25.1-28.63v-77.59c0-4.15,3.32-7.47,7.47-7.47
		H1245.16z M1420.05,399.48c0,43.15-30.91,75.31-73.86,75.31c-42.94,0-73.86-32.16-73.86-75.31c0-42.94,30.91-75.1,73.86-75.1
		C1389.14,324.38,1420.05,356.53,1420.05,399.48z M1384.37,399.48c0-20.54-12.86-40.87-38.17-40.87
		c-25.31,0-38.17,20.33-38.17,40.87c0,20.54,12.86,41.08,38.17,41.08C1371.51,440.56,1384.37,420.02,1384.37,399.48z
		 M1532.91,334.34v18.67c0,3.94-3.32,7.26-7.47,7.26h-26.55v104.35c0,4.15-3.32,7.47-7.47,7.47h-20.75c-3.94,0-7.26-3.32-7.26-7.47
		V360.27h-26.56c-4.15,0-7.47-3.32-7.47-7.26v-18.67c0-4.15,3.32-7.47,7.47-7.47h88.59
		C1529.59,326.87,1532.91,330.19,1532.91,334.34z M1638.1,465.66l-6.43-20.75h-54.98l-6.43,20.75c-1.24,3.73-4.77,6.43-8.92,6.43
		h-22.61c-3.73,0-6.43-3.73-5.19-7.47l47.51-131.74c1.24-3.53,4.77-6.02,8.71-6.02h28.84c3.94,0,7.47,2.49,8.71,6.02l47.3,131.74
		c1.45,3.73-1.24,7.47-5.19,7.47h-22.41C1642.87,472.09,1639.34,469.39,1638.1,465.66z M1623.16,418.15l-19.09-60.58l-18.88,60.58
		H1623.16z M1799.09,429.56c0,23.65-20.54,45.02-56.84,45.02c-24.07,0-46.89-8.3-56.01-29.46c-1.66-3.94,0.62-8.51,4.77-9.96
		l18.88-5.81c3.32-1.04,6.85,0.21,8.71,3.32c3.53,6.22,11,11.82,23.24,11.82c12.24,0,21.16-4.77,21.16-14.31
		c0-11-14.11-12.45-30.5-16.6c-29.05-7.26-42.32-20.54-42.32-44.81c0-28.01,23.24-44.6,53.32-44.6c21.99,0,40.87,10.17,48.96,28.21
		c1.87,4.15-0.41,9.13-4.98,10.17l-18.88,4.77c-3.11,0.62-6.43-0.62-8.09-3.32c-2.91-5.19-8.71-9.34-18.46-9.34
		c-10.37,0-17.43,5.6-17.43,13.9c0,11.41,17.43,14.11,28.63,17.22C1788.72,395.74,1799.09,406.74,1799.09,429.56z"/>
</g>
</svg>
