<?xml version="1.0" encoding="utf-8"?>
<!-- Generator: Adobe Illustrator 27.3.0, SVG Export Plug-In . SVG Version: 6.00 Build 0)  -->
<svg version="1.1" id="Capa_1" xmlns="http://www.w3.org/2000/svg" xmlns:xlink="http://www.w3.org/1999/xlink" x="0px" y="0px"
	 viewBox="0 0 1500 2000" style="enable-background:new 0 0 1500 2000;" xml:space="preserve">
<style type="text/css">
	.st0{fill:url(#SVGID_1_);}
</style>
<g>
	<linearGradient id="SVGID_1_" gradientUnits="userSpaceOnUse" x1="0" y1="1000" x2="8210.3516" y2="1000">
		<stop  offset="0" style="stop-color:#C11E38"/>
		<stop  offset="1" style="stop-color:#220B34"/>
	</linearGradient>
	<path class="st0" d="M250,0C112.11,0,0,112.11,0,250v1500c0,137.89,112.11,250,250,250h1000c137.89,0,250-112.11,250-250V250
		c0-137.89-112.11-250-250-250H250z M375,250h750c69.14,0,125,55.86,125,125v125c0,69.14-55.86,125-125,125H375
		c-69.14,0-125-55.86-125-125V375C250,305.86,305.86,250,375,250z M500,875c0,69.04-55.96,125-125,125s-125-55.96-125-125
		s55.96-125,125-125S500,805.96,500,875z M375,1375c-69.04,0-125-55.96-125-125s55.96-125,125-125s125,55.96,125,125
		S444.04,1375,375,1375z M250,1625c0-69.14,55.86-125,125-125h375c69.14,0,125,55.86,125,125s-55.86,125-125,125H375
		C305.86,1750,250,1694.14,250,1625z M750,1000c-69.04,0-125-55.96-125-125s55.96-125,125-125s125,55.96,125,125
		S819.04,1000,750,1000z M875,1250c0,69.04-55.96,125-125,125s-125-55.96-125-125s55.96-125,125-125S875,1180.96,875,1250z
		 M1125,1000c-69.04,0-125-55.96-125-125s55.96-125,125-125s125,55.96,125,125S1194.04,1000,1125,1000z M1250,1250
		c0,69.04-55.96,125-125,125s-125-55.96-125-125s55.96-125,125-125S1250,1180.96,1250,1250z M1125,1750c-69.04,0-125-55.96-125-125
		s55.96-125,125-125s125,55.96,125,125S1194.04,1750,1125,1750z"/>
</g>
</svg>
